{"title":"Cougars.Inc.2011.BDRip.XVID.AC3.HQ.Hive-CM8","uid":6286130,"size":1488582794,"categoryP":"video","categoryS":"movies","magnet":"?xt=urn:btih:963ea3fd53729eaf0ce8f2fde6254eeace436558&amp;dn=Cougars.Inc.2011.BDRip.XVID.AC3.HQ.Hive-CM8&amp;tr=udp%3A%2F%2Ftracker.openbittorrent.com%3A80&amp;tr=udp%3A%2F%2Fopen.demonii.com%3A1337&amp;tr=udp%3A%2F%2Ftracker.coppersurfer.tk%3A6969&amp;tr=udp%3A%2F%2Fexodus.desync.com%3A6969","seeders":0,"leechers":1,"uploader":"sceneline","files":5,"time":1301622210,"description":"-\nhttp:// www. Speed. Cd       \nhttp:// www. Speed. Cd       the fast  and The Hottest Private Tracker on the net\n\nPlease Seed back to make the speed Faster!!!\n\nand don't forget to visit      ...... www. Speed. Cd..........\n-[img]http://img12.imageshack.us/img12/2716/cougarsinc2010.jpg[/img]\n\n[color=blue][size=5][b]Cougars Inc 2011 BDRip XVID AC3 HQ Hive-CM8[/b][/size][/color]\n\n\n\n[b]Thx Hive\n\nCM8 Doing It Right The First Time :D\n\nWhy download a touched up rip of a rip BRrip\nGet the real deal BDRip\nEnjoy\n\nSource Bluray\n\nVideo: 720x304 @bitrate 1900 2pass\nAudio: DTS to AC3 5.1 @448\nSample: yes included[/b]\n\n\n[url]http://www.imdb.com/title/tt1198075/[/url]\n\n\nGeneral\nComplete name                    : Cougars.Inc.2011.BDRip.XVID.AC3.HQ.Hive-CM8.avi\nFormat                           : AVI\nFormat/Info                      : Audio Video Interleave\nFile size                        : 1.38 GiB\nDuration                         : 1h 22mn\nOverall bit rate                 : 2 404 Kbps\nWriting application              : Nandub v1.0rc2\nWriting library                  : Nandub build 1853/release\n\nVideo\nID                               : 0\nFormat                           : MPEG-4 Visual\nFormat profile                   : Advanced Simple@L5\nFormat settings, BVOP            : Yes\nFormat settings, QPel            : Yes\nFormat settings, GMC             : No warppoints\nFormat settings, Matrix          : Default (H.263)\nMuxing mode                      : Packed bitstream\nCodec ID                         : XVID\nCodec ID/Hint                    : XviD\nDuration                         : 1h 22mn\nBit rate                         : 1 946 Kbps\nWidth                            : 720 pixels\nHeight                           : 304 pixels\nDisplay aspect ratio             : 2.35:1\nFrame rate                       : 23.976 fps\nColor space                      : YUV\nChroma subsampling               : 4:2:0\nBit depth                        : 8 bits\nScan type                        : Progressive\nBits/(Pixel*Frame)               : 0.371\nStream size                      : 1.12 GiB (81%)\nWriting library                  : XviD 1.2.1 (UTC 2008-12-04)\n\nAudio\nID                               : 1\nFormat                           : AC-3\nFormat/Info                      : Audio Coding 3\nMode extension                   : CM (complete main)\nCodec ID                         : 2000\nDuration                         : 1h 22mn\nBit rate mode                    : Constant\nBit rate                         : 448 Kbps\nChannel(s)                       : 6 channels\nChannel positions                : Front: L C R, Side: L R, LFE\nSampling rate                    : 48.0 KHz\nBit depth                        : 16 bits\nStream size                      : 263 MiB (19%)\nAlignment                        : Split accross interleaves\nInterleave, duration             : 42 ms (1.00 video frame)\nInterleave, preload duration     : 500 ms\n\n\n\nSarah Hyland\t ... \tCourtney\nDenise Richards\t... \tJudy\nJames Belushi\t... \tDan Fox\nKyle Gallner\t... \tSam\nKathryn Morris\t... \tAlison\nRebecca Mader\t... \tMary\nMaeve Quinlan\t... \tKitty Lowell\n\n\n\nSam has been kicked out of every school across the country. When he learns \nthat his mother can no longer afford to keep him in school he and his friends \nstart their own escort service, Cougars, Inc., to help pay for his tuition. \nThrough this hilarious new job Sam and his friends explore the generation of \nCougars who are desperately trying to stay young and loving every lesson they are taught.\n\n\n[img]http://img9.imageshack.us/img9/562/92965592.png[/img]\n[img]http://img198.imageshack.us/img198/6050/cocoy.png[/img]\n[img]http://img846.imageshack.us/img846/9292/cococo.png[/img]\n[img]http://img222.imageshack.us/img222/2522/cocococo.png[/img]\n[img]http://img560.imageshack.us/img560/5752/cococococo.png[/img]\n[img]http://img29.imageshack.us/img29/8351/cocococococo.png[/img]\n[img]http://img3.imageshack.us/img3/5665/cococococococo.png[/img]\n[img]http://img683.imageshack.us/img683/3695/cocococococococo.png[/img]\n[img]http://img706.imageshack.us/img706/1484/cocococococcoococo.png[/img]\n\n\n\n\nGreetz\n\nViSiON,LUSi,,MAGNET,CLASSiFiED,THC,T0XiCiNK,IMAGiNE,WBZ,FLAWL3SS,NOVA\nVik,Rapeseed,D2U,SAFC,goldadvance,MEMORY100,KaN1vE,Unevano,Pinnz,Wayne,Mr Hive\nand all P2P groups\nGreat Work Guys :D\n\n&lt;a class=&quot;__cf_email__&quot; href=&quot;/cdn-cgi/l/email-protection&quot; data-cfemail=&quot;a0e3ed98e0c8d5d3c8cdc1c9cc8ec3cfcd&quot;&gt;[email&amp;#160;protected]&lt;/a&gt;&lt;script cf-hash='f9e31' type=&quot;text/javascript&quot;&gt;\n/* &lt;![CDATA[ */!function(){try{var t=&quot;currentScript&quot;in document?document.currentScript:function(){for(var t=document.getElementsByTagName(&quot;script&quot;),e=t.length;e--;)if(t[e].getAttribute(&quot;cf-hash&quot;))return t[e]}();if(t&amp;&amp;t.previousSibling){var e,r,n,i,c=t.previousSibling,a=c.getAttribute(&quot;data-cfemail&quot;);if(a){for(e=&quot;&quot;,r=parseInt(a.substr(0,2),16),n=2;a.length-n;n+=2)i=parseInt(a.substr(n,2),16)^r,e+=String.fromCharCode(i);e=document.createTextNode(e),c.parentNode.replaceChild(e,c)}}}catch(u){}}();/* ]]&gt; */&lt;/script&gt;","torrent":{"xt":"urn:btih:963ea3fd53729eaf0ce8f2fde6254eeace436558","amp;dn":"Cougars.Inc.2011.BDRip.XVID.AC3.HQ.Hive-CM8","amp;tr":["udp%3A%2F%2Ftracker.openbittorrent.com%3A80","udp%3A%2F%2Fopen.demonii.com%3A1337","udp%3A%2F%2Ftracker.coppersurfer.tk%3A6969","udp%3A%2F%2Fexodus.desync.com%3A6969"],"infoHash":"963ea3fd53729eaf0ce8f2fde6254eeace436558","infoHashBuffer":{"type":"Buffer","data":[150,62,163,253,83,114,158,175,12,232,242,253,230,37,78,234,206,67,101,88]},"announce":[],"urlList":[]}}